<svg width="80" height="118" viewBox="0 0 80 118" fill="none" xmlns="http://www.w3.org/2000/svg">
<g filter="url(#filter0_d_5_110)">
<path d="M59.1 117.8L45.3 94.7999C45.3 94.7999 44.9 94.2999 44.9 93.4999V92.9999V91.8999V50.8999H39.7V93.4999V94.7999C40.1 95.1999 48.8 110 48.8 110H27.2C27.2 110 35.9 95.1999 36.3 94.7999V93.4999V50.8999H31.1V91.7999V92.8999V93.3999C31.1 94.1999 30.7 94.6999 30.7 94.6999L16.9 117.7H59V117.8H59.1Z" fill="#996600"/>
<path d="M54.7 21.1C54.7 21.1 57.3 10.3 48.1 3.3C48.1 3.3 44.4 0 37.3 0C31 0 27.3 3.3 27.3 3.3C18.8 9.2 21 21.1 21 21.1H54.7Z" fill="#996600"/>
<path d="M22.1 24.1002H53.8C54 23.5002 54.2 22.9002 54.4 22.2002H21.5C21.6 22.9002 21.8 23.5002 22.1 24.1002Z" fill="#996600"/>
<path d="M53.3 25.2002H22.7C23 25.8002 23.3 26.4002 23.7 27.1002H52.3C52.7 26.5002 53 25.9002 53.3 25.2002Z" fill="#996600"/>
<path d="M25.8 29.6998H50.2C50.6 29.1998 51.1 28.7998 51.4 28.2998H24.4C24.8 28.6998 25.3 29.1998 25.8 29.6998Z" fill="#996600"/>
<path d="M28.3 31.8998H47.4001C47.9001 31.5998 48.4 31.1998 48.8 30.7998H26.8C27.4 31.0998 27.9 31.5998 28.3 31.8998Z" fill="#996600"/>
<path d="M31 33.3999C33.1 34.2999 35.4 34.7999 37.9 34.7999C40.4 34.7999 42.7 34.2999 44.8 33.3999H31Z" fill="#996600"/>
<path d="M70.8 35.7002H44.9C44.9 35.7002 42.5 35.7002 40.6 37.0002C39.2 38.0002 38 40.4002 38 40.5002C38 40.4002 36.9 38.0002 35.4 37.0002C33.4 35.7002 31.1 35.7002 31.1 35.7002H5.2L0 44.0002H23.7C23.7 44.0002 24.4 44.0002 24.8 44.1002C25.5 44.2002 26.8 44.6002 28 45.5002C29.8 46.7002 30.3 47.5002 30.7 47.9002C30.9 48.1002 31.4 48.8002 31.4 48.8002H37.2H37.8H39.8H44.5C44.5 48.8002 45 48.1002 45.2 47.9002C45.6 47.5002 46.1 46.9002 47.9 45.5002C49.1 44.6002 50.4 44.2002 51.1 44.1002C51.5 44.0002 52.2 44.0002 52.2 44.0002H75.9L70.8 35.7002Z" fill="#003366"/>
<path d="M2.59998 46.3999V85.2999C2.59998 85.2999 2.59998 85.6999 2.59998 85.7999C2.59998 86.1999 2.59998 86.5999 2.69998 86.8999C3.09998 90.9999 4.49998 94.0999 6.79998 98.1999C10.6 104.5 17.6 109 17.6 109L20.8 103.8C20.8 103.8 16.4 101.4 12.8 95.9999C12.1 94.9999 11.4 93.8999 10.9 92.8999C10.5 91.9999 10.1 91.0999 9.89998 90.2999C9.59998 89.8999 9.39998 89.2999 9.29998 88.8999C9.09998 88.1999 9.09998 87.6999 8.99998 86.8999C8.99998 86.6999 8.99998 85.6999 8.99998 85.6999V85.4999V46.3999H2.59998Z" fill="#003366"/>
<path d="M12.4 46.3998V85.6998C12.4 85.6998 12.4 85.8998 12.4 85.9998C12.4 86.1998 12.4 86.4998 12.5 86.6998C12.5 86.7998 12.5 86.9998 12.6 87.0998C12.7 87.6998 12.8 88.1998 13.1 89.0998C13.5 90.3998 14.3 91.9998 15.5 93.8998C18.4 98.5998 22.6 100.7 22.6 100.7L25.8 95.5998C25.8 95.5998 24.8 94.9998 23.4 93.6998C22.6 92.8998 21.5 91.6998 20.6 90.4998C19.8 89.1998 19.3 87.7998 18.9 86.7998C18.7 85.9998 18.6 85.1998 18.6 84.7998C18.6 84.4998 18.6 84.2998 18.6 84.2998V46.2998H12.4V46.3998Z" fill="#003366"/>
<path d="M73.3 46.3999V85.2999C73.3 85.2999 73.3 85.6999 73.3 85.7999C73.3 86.1999 73.3 86.5999 73.2 86.8999C72.8 90.9999 71.4 94.0999 69.1 98.1999C65.3 104.5 58.3 109 58.3 109L55.1 103.8C55.1 103.8 59.5 101.4 63.1 95.9999C63.8 94.9999 64.5 93.8999 65 92.8999C65.4 91.9999 65.8 91.0999 66 90.2999C66.2 89.6999 66.4 89.1999 66.5 88.5999C66.7 87.8999 66.7 87.3999 66.8 86.5999C66.8 86.3999 66.8 85.3999 66.8 85.3999V85.1999V46.3999H73.3Z" fill="#003366"/>
<path d="M63.5 46.3998V85.6998C63.5 85.6998 63.5 85.8998 63.5 85.9998C63.5 86.1998 63.5 86.4998 63.4 86.6998C63.4 86.7998 63.4 86.9998 63.3 87.0998C63.2 87.6998 63.1 88.1998 62.8 89.0998C62.4 90.3998 61.6 91.9998 60.4 93.8998C57.5 98.5998 53.3 100.7 53.3 100.7L50.1 95.5998C50.1 95.5998 51.1 94.9998 52.5 93.6998C53.3 92.8998 54.4 91.6998 55.3 90.4998C56.1 89.1998 56.6 87.7998 57 86.7998C57.2 85.9998 57.3 85.1998 57.3 84.7998C57.3 84.4998 57.3 84.2998 57.3 84.2998V46.2998H63.5V46.3998Z" fill="#003366"/>
</g>
<defs>
<filter id="filter0_d_5_110" x="-4" y="0" width="83.9" height="125.8" filterUnits="userSpaceOnUse" color-interpolation-filters="sRGB">
<feFlood flood-opacity="0" result="BackgroundImageFix"/>
<feColorMatrix in="SourceAlpha" type="matrix" values="0 0 0 0 0 0 0 0 0 0 0 0 0 0 0 0 0 0 127 0" result="hardAlpha"/>
<feOffset dy="4"/>
<feGaussianBlur stdDeviation="2"/>
<feComposite in2="hardAlpha" operator="out"/>
<feColorMatrix type="matrix" values="0 0 0 0 0 0 0 0 0 0 0 0 0 0 0 0 0 0 0.25 0"/>
<feBlend mode="normal" in2="BackgroundImageFix" result="effect1_dropShadow_5_110"/>
<feBlend mode="normal" in="SourceGraphic" in2="effect1_dropShadow_5_110" result="shape"/>
</filter>
</defs>
</svg>
