<?xml version="1.0" standalone="no"?><!DOCTYPE svg PUBLIC "-//W3C//DTD SVG 1.1//EN" "http://www.w3.org/Graphics/SVG/1.1/DTD/svg11.dtd"><svg t="1716281540890" class="icon" viewBox="0 0 1024 1024" version="1.1" xmlns="http://www.w3.org/2000/svg" p-id="4518" xmlns:xlink="http://www.w3.org/1999/xlink" width="200" height="200"><path d="M460.8 899.6864c-0.2048-0.4096-0.8192-0.6144-1.2288-0.8192-0.4096 0-1.2288 0-1.6384 0.4096-4.3008 5.3248-8.192 9.0112-12.4928 14.1312-4.096 4.5056-6.5536 9.0112-9.4208 12.6976-5.5296 7.168-9.216 12.0832-16.1792 20.0704-0.4096 0.4096-1.2288 1.2288-1.4336 2.048-0.4096 0.8192-1.2288 2.6624 0.2048 2.8672h2.8672c1.6384-0.4096 6.144-2.4576 8.6016-4.5056 3.072-3.4816 9.0112-12.9024 14.1312-19.8656 3.2768-4.5056 7.5776-9.216 10.24-13.312 4.7104-6.7584 6.5536-12.0832 6.3488-13.7216z m-78.6432-32.1536c-2.2528-1.024-4.7104 0-7.3728-0.4096-4.9152-0.8192-11.8784-1.6384-16.384-2.6624-1.4336-0.6144-7.3728 0.4096-9.0112 2.6624 1.8432-0.2048 3.8912-0.4096 6.144-0.2048 1.4336 0.2048 3.2768 0.4096 5.9392 1.024 3.2768 0.4096 6.3488 1.024 9.216 1.6384 4.7104 1.024 5.7344 1.4336 8.8064 3.2768 1.2288 0.6144 1.6384 3.072 1.8432 5.3248 0.4096 2.8672 0.2048 4.7104-0.2048 6.9632-0.8192 4.096-2.6624 8.6016-4.5056 13.1072-1.6384 4.3008-3.2768 9.6256-4.3008 12.288-1.4336 4.3008-4.7104 8.8064-6.5536 12.4928-0.2048 0.6144-1.2288 2.8672-2.4576 2.4576-2.6624-2.4576-5.9392-6.9632-6.5536-8.3968-1.024-0.6144-0.4096-6.144 0.4096-7.3728 2.048-2.2528 4.9152-0.8192 7.7824-4.3008 2.2528-2.8672 1.2288-4.7104 5.3248-11.6736 5.5296-9.216 5.5296-10.6496 2.8672-14.336-0.4096-0.6144-0.4096-1.2288-1.4336-1.8432-1.8432-1.2288-4.9152-2.048-4.9152-1.2288-0.4096 4.5056 1.2288 4.9152 2.4576 7.3728 1.4336 1.8432-2.8672 6.5536-5.9392 10.0352-0.4096 0.6144-1.024 1.024-1.2288 1.4336 0.4096 0.2048 0.8192 0.4096 1.024 0.6144 0.2048 0.4096-0.8192 2.048-1.4336 3.072-0.6144 0-1.6384-0.4096-2.048-1.024 0-0.2048 0.4096-1.024 0.8192-1.8432-0.6144 0-1.024-0.2048-1.4336-0.6144-1.024-1.4336-0.6144-4.096-0.2048-6.5536 0.2048-1.2288 0.4096-3.072 0.8192-4.7104 0.4096-1.4336 1.6384-2.6624 1.6384-4.7104 0-1.2288-0.8192-2.6624-1.024-3.6864-0.2048-1.2288 0-2.2528-0.2048-2.8672-0.6144-0.8192-0.4096-2.6624-1.6384-3.072-3.2768-0.8192-3.6864 6.9632-5.5296 8.192-1.2288 0.8192-3.8912 0.2048-6.144-0.2048-1.024-0.2048-2.8672-0.4096-3.072-0.2048-0.6144 0.4096 0.2048 1.4336 0.8192 2.6624 0.4096 0.8192 0.2048 1.2288 0.6144 2.2528 0.2048 0.8192 0.6144 1.2288 0.2048 2.048-0.2048 1.2288-1.4336 2.4576-1.024 3.072 0.4096 0.8192 2.2528 0.4096 3.8912 1.024-0.4096 1.4336-5.12 3.072-4.9152 3.6864 0 0.4096 1.024 0.8192 1.8432 1.024 2.6624-0.4096 3.8912-1.024 5.7344-0.6144 0.6144 2.2528 0.6144 3.6864 0.2048 4.7104-0.8192 2.4576-9.4208 3.072-13.312 0.8192 0.4096-1.4336 1.8432-4.096 1.2288-3.8912-2.048 0.2048-2.8672 1.6384-5.3248 2.2528-1.4336 0.4096-1.8432 0.4096-2.8672 0 1.6384-4.096 4.9152-13.312 6.144-14.7456 1.8432-1.8432 3.072-5.9392 3.2768-7.3728 0.4096-1.6384-0.4096-3.2768-1.2288-2.8672-4.096 1.4336-6.9632 6.3488-10.8544 12.288-1.4336 2.4576-8.8064 16.9984-11.264 23.7568-0.4096 1.8432 0.6144 3.8912 1.6384 4.096 1.6384 0.4096 4.096 0 4.7104-0.8192 1.6384-2.2528 2.8672-6.144 4.9152-9.8304 3.2768 1.4336 6.3488 2.4576 9.216 2.8672 3.072 0 5.3248 0.2048 7.3728 0s3.6864-0.8192 4.5056-1.024c1.024-0.2048 1.8432 0 2.048 0.6144-0.6144 1.4336-0.6144 3.072-1.4336 3.6864-3.2768 1.6384-5.3248 3.072-4.9152 3.4816 1.2288 0.4096 3.6864-0.2048 5.12 0 0.2048 0.4096 0.6144 0.8192 0 2.048 0 1.024-0.2048 2.048-1.2288 2.4576-1.2288 0.8192-1.6384 1.2288-2.4576 1.2288-1.4336 0-3.072-1.2288-5.12-1.8432-2.2528-0.6144-3.2768-0.2048-4.3008-1.2288-0.4096-0.4096-0.2048-1.024 1.024-1.4336 1.024-0.4096 1.8432-1.4336 1.6384-2.048-1.024-0.2048-7.5776 0.6144-7.9872 1.6384-1.2288 3.072-0.4096 3.2768-0.8192 4.5056-0.8192 2.4576-1.2288 3.072-0.8192 3.6864 0 0.4096 1.6384 1.024 2.8672 1.024 2.4576-0.2048 2.6624-0.4096 4.096-0.4096s7.168 1.024 10.4448 2.048c2.048 0.6144 7.9872 1.2288 8.6016 1.8432 1.2288 3.072 3.4816 6.5536 3.8912 7.5776 0.2048 4.096 2.048 5.12 2.2528 6.5536 0.4096 1.6384-1.2288 3.072-0.8192 3.4816 0.2048 0.4096 1.8432 0.8192 2.6624 0.6144 2.4576-0.2048 4.096-1.024 5.5296-1.8432 1.8432-1.024 6.5536-15.9744 11.6736-27.2384 2.8672-6.7584 3.8912-14.1312 6.9632-21.7088 0.6144-2.8672 1.6384-5.7344 1.8432-8.192 0.4096-3.6864-0.4096-6.5536-1.2288-9.0112-1.6384-3.8912-2.6624-5.3248-6.5536-6.9632z m112.0256 87.2448c-8.192-3.2768-15.36-7.3728-24.1664-13.9264-9.8304-7.3728-16.7936-16.384-18.432-14.9504-1.2288 1.4336 3.4816 5.7344 7.3728 10.0352 4.9152 5.9392 6.9632 7.3728 10.6496 11.0592 4.096 4.5056 6.7584 9.4208 10.4448 11.8784 2.8672 1.6384 5.9392 2.2528 8.6016 2.6624 2.6624 0.2048 4.3008 0.4096 7.9872 0.2048 2.4576-0.4096 2.2528-1.6384 1.6384-3.072-0.6144-1.2288-1.8432-2.8672-4.096-3.8912z m-212.7872-124.7232c3.2768 2.8672 5.9392 5.12 7.9872 7.9872 0.8192-0.8192 1.024-1.6384 1.024-2.2528-0.8192-0.8192-0.6144-1.024-2.048-2.2528-4.5056-3.2768-8.8064-8.6016-9.6256-7.7824l-0.6144 0.6144c0.4096 1.2288 1.6384 2.4576 3.2768 3.6864z m7.7824 7.9872c-2.2528 2.6624-8.192 5.5296-16.5888 0.8192-1.4336-0.8192-4.5056-1.024-4.096-2.6624 2.2528-2.8672 6.7584-6.9632 9.4208-9.6256-0.4096-0.6144-0.8192-1.4336-1.024-2.048-0.4096-1.2288 0.4096-2.6624 2.2528-4.3008 1.6384-1.4336 3.2768-2.8672 4.5056-4.096 0.6144-0.6144 0.2048-2.8672-0.4096-3.4816-1.4336-1.6384-2.2528-5.12-3.4816-4.5056-1.6384 0.8192-1.2288 0.8192-2.6624 2.4576-0.6144 0.8192-1.024 1.6384-1.6384 2.4576-1.6384 1.6384-4.5056 4.5056-5.3248 4.7104-3.8912-0.8192-8.8064-3.6864-12.4928-5.12-1.6384-1.2288-0.6144-3.8912-1.024-5.7344-0.4096-1.2288-1.4336-3.072-2.2528-3.4816l-0.6144 0.6144c-1.2288 2.048-1.6384 4.096-2.8672 6.3488-2.048 3.4816-4.3008 7.168-6.3488 10.8544-0.4096 0.6144-0.6144 0.8192-0.8192 1.4336-0.2048 1.2288 0 1.6384 1.024 2.4576 0.6144 0.6144 1.4336 1.024 2.048 0.6144 2.8672-2.2528 6.144-6.144 8.6016-8.192 1.2288-1.024 1.8432-2.048 2.2528-1.6384 1.2288 1.024 3.072 2.2528 4.7104 3.6864 1.2288 1.024 2.8672 2.2528 2.8672 2.8672-3.072 3.4816-7.3728 6.9632-9.0112 9.0112-5.12-3.6864-4.7104-2.4576-6.7584-1.6384-0.6144 1.4336 3.4816 3.6864 2.6624 5.12-4.9152 5.12-12.9024 11.4688-19.0464 17.408-2.048 2.048-3.6864 4.5056-5.12 6.144-1.6384 1.6384-3.2768 4.096-3.8912 5.9392-0.6144 1.8432-0.6144 2.6624 0 3.2768 0.2048 0.2048 0.6144 0.4096 1.2288 0.4096 2.4576 0 3.2768-0.2048 6.7584-1.6384 1.4336-1.024 3.072-3.4816 6.7584-6.7584 1.8432-1.6384 13.7216-11.8784 15.1552-13.312 2.2528-2.048 3.6864-3.2768 5.12-4.7104 1.024 0.2048 3.072 2.048 6.9632 3.2768 1.6384 0.6144 2.8672 1.4336 5.5296 2.048 1.024 0 2.4576 0 4.7104 2.048 6.5536 5.3248 7.9872 5.7344 9.0112 4.9152 3.6864-2.8672 2.6624-2.8672 3.8912-5.3248 1.8432-3.4816 3.2768-6.5536 1.8432-9.216-0.8192-0.2048-1.4336-0.8192-1.8432-1.4336z m454.656-15.7696c0-0.6144-0.2048-1.2288-0.4096-1.4336-0.2048 0.2048-1.4336 1.2288-2.4576 2.048 0.2048 0.4096 0.4096 0.6144 0.6144 0.8192 0.4096-0.4096 1.2288-1.024 2.2528-1.4336z m53.4528 24.3712c-1.2288-0.4096-3.6864-1.6384-4.3008-1.4336-1.024 0.2048-4.096 2.6624-7.7824 5.9392-0.6144 0.4096-0.8192 0.6144-1.6384 1.024s-1.024 0.8192-1.4336 0.4096c-1.2288-1.024-2.2528-2.4576-2.6624-3.6864-0.4096-1.4336-0.4096-2.8672-0.4096-4.096-0.4096-2.048-2.4576-3.072-3.2768-4.3008-0.4096-2.048 0.2048-2.4576 0.8192-4.3008 0.4096-1.4336 1.8432-2.6624 3.072-3.4816 0.8192-0.6144 1.8432 0.2048 2.8672-0.2048 2.048-1.024 4.096-2.2528 5.5296-3.072 2.2528-1.6384 1.024-2.6624-1.024-5.12-2.8672-2.6624-7.9872-3.072-11.0592-2.2528-1.6384 0.2048-4.9152-4.9152-7.7824-10.4448-1.2288-2.2528-1.8432-4.7104-2.8672-6.7584-2.6624-5.3248-4.9152-6.144-5.9392-6.144-1.6384 0.2048-1.8432 0.8192-3.2768 2.048-0.4096 0.4096-1.024 0.8192-1.4336 1.2288 1.2288 1.4336 1.8432 2.8672 1.2288 3.2768-0.6144 1.024-3.4816 2.8672-3.6864 5.3248-1.2288 1.4336-2.6624 2.2528-3.8912 3.072-0.8192 0.6144-1.4336 1.024-1.6384 1.024-0.8192-1.4336-1.024-5.5296-1.8432-6.9632l0.4096-0.4096c-0.8192 0-1.2288 0.2048-0.8192 1.6384 0.2048 1.024 1.024 3.072 1.4336 5.12 0.4096 2.4576 1.024 5.12 0.8192 5.5296-0.8192 0.8192-2.048 1.8432-3.2768 2.6624 0.2048 1.8432 0.2048 4.3008 0 4.7104-0.2048 0.6144-0.4096 1.2288-1.2288 2.048-1.024-1.2288-3.072-4.5056-3.4816-4.9152 0.4096-0.2048 1.024-0.8192 1.8432-1.4336-0.8192-1.2288-2.048-2.6624-3.2768-2.8672-1.4336-0.2048-3.072 0.4096-3.4816 1.024-1.024 1.024 4.9152 7.3728 10.4448 14.9504 3.6864 5.12 6.9632 12.288 8.8064 14.7456-1.4336 4.096-3.072 6.9632-4.5056 11.0592-0.6144 1.4336-1.8432 2.8672-3.072 2.8672-1.2288-1.2288-2.2528-1.6384-3.2768-1.8432-1.8432-0.6144-2.8672-0.4096-4.096 0.2048-0.2048 0.2048-1.8432 1.024-1.2288 2.048 0.8192 1.8432 2.4576 3.8912 3.6864 6.3488 0.4096 1.024 5.12 13.7216 5.9392 14.1312 1.6384 0.4096 2.2528 1.2288 3.4816 0.8192 1.6384-1.024 3.4816-2.048 3.4816-4.5056 0.6144-4.3008-5.3248-11.4688-5.12-14.1312 0.6144-1.2288 2.2528-3.072 2.8672-4.096 1.4336-1.6384 0.6144-2.6624 3.6864-7.9872 1.8432-3.2768 3.6864-5.12 5.3248-7.7824 2.8672-3.6864 2.2528-5.12 3.4816-6.9632 1.2288-1.6384 3.6864-2.8672 5.9392-4.9152 0.8192-0.8192 1.2288-2.2528 1.6384-3.072 0.6144-1.024 1.6384-1.6384 2.4576-2.6624 0.4096-0.4096 1.024-1.024 1.6384-1.024 1.8432 0 2.2528 0.4096 1.4336 2.2528-1.6384 3.072-3.4816 5.9392-3.2768 9.4208-0.4096 1.024-0.6144 0.8192-1.8432 2.6624-0.4096 0.8192-1.024 2.2528-1.8432 3.2768-2.6624 2.8672-6.144 6.5536-9.216 10.0352-0.6144 0.6144 0.2048 1.4336 0.8192 1.8432 0.8192 0.8192 4.3008 0.2048 6.7584-1.6384 1.024-0.8192 1.024-2.4576 1.6384-3.6864 0.4096-1.024 1.8432-5.9392 3.2768-3.4816 1.2288 1.8432 2.048 3.4816 2.4576 4.5056 0.8192 1.4336 1.8432 2.6624 2.4576 3.6864-0.8192 1.8432-1.8432 4.096-3.4816 6.144-2.2528 2.8672-4.9152 5.12-7.5776 8.8064-2.048 3.2768-1.4336 7.3728-0.6144 7.5776 2.2528 0 5.12-3.2768 7.9872-7.5776 2.048-3.2768 3.072-6.3488 4.5056-9.4208 0.2048-1.2288 1.8432-2.2528 3.2768-0.6144 1.8432 2.4576 0.8192 3.8912 1.8432 5.5296 0.8192 2.2528-2.4576 4.5056-6.3488 6.7584-1.6384 1.024-4.5056 3.072-5.3248 3.6864-0.6144 1.024 2.8672-0.2048 4.096-0.4096 1.8432-0.2048 3.072-1.4336 5.9392-2.2528 4.5056-1.2288 6.5536-0.6144 8.6016-2.048 1.6384-0.8192 3.6864-3.8912 3.2768-7.3728-0.8192-3.4816-3.8912-6.3488-7.5776-11.0592-0.6144-0.8192-0.6144-1.024 0-1.4336 0.2048-0.2048 0.6144-0.4096 1.024-0.6144 2.2528-1.4336 3.8912-2.048 4.7104-2.4576 1.6384-0.8192 4.096-1.024 4.9152-1.4336 2.2528-0.6144 0.6144-2.8672 0-3.072z m-44.2368-5.12c-0.2048 0.2048-1.2288 0-1.8432-0.4096-1.4336-1.4336-3.8912-4.7104-6.3488-8.3968 0.2048-1.024 1.024-2.8672 1.4336-4.096 0.2048-0.6144 0-1.2288 3.4816-0.2048 1.024 0.2048 1.6384 0.6144 2.8672 1.024 0.6144 7.3728 1.2288 10.24 0.4096 12.0832z m0-16.1792c-2.6624-0.2048-4.096 0-6.144-0.8192 0-2.6624 0.4096-5.5296 0.4096-7.9872 1.024-0.8192 2.6624-2.4576 3.4816-3.072 0.8192-0.2048 2.2528 0.4096 2.4576 1.6384 0.6144 1.6384-0.2048 9.216-0.2048 10.24z m3.4816-14.7456c0.4096-0.4096 1.6384-2.048 2.4576-1.6384 0.8192 0.6144 2.048 3.6864 2.4576 5.12-0.2048 0.8192-3.6864 2.4576-3.8912 2.6624-0.4096-1.8432-1.6384-4.5056-1.024-6.144z m6.3488 26.8288c-0.4096 0.4096-1.024 0.4096-1.024 0.4096s-0.6144-1.024 0-2.4576c0 0 1.4336-0.6144 1.6384 0.8192-0.2048 0.6144-0.4096 1.024-0.6144 1.2288z m-1.2288-9.4208c-1.024-0.8192-3.4816-1.4336-4.7104-2.2528-0.2048-2.8672 0.4096-4.9152 0.6144-4.9152 1.6384-1.024 4.7104-4.096 5.3248-3.4816 1.4336 3.2768 1.8432 4.9152 2.6624 6.3488 0 4.3008-0.8192 6.144-3.8912 4.3008z m-6.5536-26.0096c-0.2048 0-0.2048 0 0 0-1.024-1.2288-1.024-1.2288-1.4336-0.8192-0.2048 0.2048-5.9392 4.3008-7.7824 6.144 0.8192 0 1.8432 0.6144 2.2528 1.024 2.6624-2.6624 4.9152-4.7104 6.9632-6.3488z m-45.056 117.5552c-2.048-0.6144-4.9152 0.8192-9.216 0.2048-5.9392-1.024-8.3968-3.4816-16.7936-7.7824-2.2528-1.024-4.096-2.048-6.144-3.2768-3.2768-2.048-5.3248-3.2768-7.5776-4.9152-0.8192-0.6144-3.072-2.048-1.4336-3.8912 3.4816-3.4816 6.5536-7.3728 9.6256-10.0352 2.4576-1.2288 4.9152-1.8432 8.3968-3.072 0.4096-0.2048 0.6144-0.8192 0.6144-1.2288 0-1.4336-0.4096-2.4576-1.2288-2.8672-1.8432-1.024-2.2528-0.8192-3.6864-1.024-2.2528 0-4.096 0.2048-5.7344 1.2288-3.4816 1.6384-5.7344 4.9152-8.192 7.7824-1.2288 1.4336-3.072 2.8672-4.096 4.096-1.024 1.024-2.048 1.4336-2.2528 1.024-2.2528-3.4816-3.072-10.4448-3.2768-15.5648 0-0.2048-0.6144-2.2528-1.4336-3.072-0.8192-0.8192-2.2528-0.6144-2.8672-0.6144-3.2768-0.6144-5.7344-0.6144-6.7584 1.4336 1.024 4.7104 2.8672 8.3968 3.8912 11.8784 1.4336 4.9152 3.2768 9.4208 2.6624 12.4928-1.024 2.2528-3.6864 5.5296-8.3968 8.3968-1.6384 0.8192-2.2528 1.024-3.6864 1.4336-1.024 0.4096-2.048 0.4096-2.6624 0.8192-1.024 0.8192-1.6384 1.4336-1.024 2.6624 1.4336 2.4576 2.048 2.048 4.3008 1.8432 2.4576 0 4.096-0.8192 5.12-1.2288 2.6624-1.8432 3.8912-2.8672 7.3728-4.7104 0.8192-0.2048 1.2288 0.8192 1.4336 1.8432 0.8192 6.5536 0.8192 10.24 0.2048 15.36-0.6144 5.5296-1.2288 9.6256-3.4816 14.1312-1.2288 2.6624-0.8192 3.8912 0.4096 3.8912 0.6144 0 0.6144-0.8192 2.8672-3.072 1.6384-2.048 4.7104-4.5056 5.5296-5.9392 1.4336-2.4576 1.4336-5.5296 2.4576-10.6496 0.2048-3.4816-0.2048-6.3488-1.6384-17.6128 0-0.4096-0.2048-1.024-0.2048-1.4336 0-0.4096 0.2048-0.8192 0.6144-1.6384 0.6144-1.4336 1.024-1.8432 2.048-2.8672 4.096 4.096 6.144 7.168 8.6016 9.4208 1.4336 1.4336 3.2768 2.2528 5.12 3.4816 6.5536 4.7104 12.9024 8.8064 19.2512 12.288 3.4816 1.6384 8.6016-1.024 13.312-2.8672 0.6144-0.2048 2.4576-1.6384 2.4576-2.4576-0.2048-2.048-0.2048-2.8672-4.5056-3.8912z m36.2496-69.0176c1.2288-0.4096 1.8432-1.4336 2.048-2.048 0.2048-1.6384-12.4928-14.7456-13.9264-14.9504-1.2288-0.4096-8.8064 1.4336-7.9872 2.4576 1.2288 1.6384 3.2768 2.2528 5.12 3.8912 5.12 4.7104 10.8544 10.0352 11.8784 10.4448 1.2288 0.4096 2.2528 0.4096 2.8672 0.2048zM598.016 934.2976c-1.2288 6.5536-3.072 12.288-7.3728 15.7696-0.8192 0.6144-2.6624 1.8432-4.096 1.6384-1.6384-0.2048-3.6864-1.6384-5.3248-4.3008-3.4816-5.3248-5.5296-10.8544-5.3248-15.1552 2.048-1.2288 4.5056-3.072 7.7824-5.5296 2.048-2.6624 4.096-5.3248 3.2768-6.7584-0.6144-0.6144-1.2288-0.8192-6.144 0.6144-2.8672 1.024-6.144 3.4816-6.9632 3.6864-1.2288-0.2048-2.048-2.4576-3.6864-3.2768-1.6384-1.2288-5.12-0.6144-5.5296 0-1.2288 2.2528-0.2048 8.192-0.2048 11.4688-0.6144 1.4336-6.7584 6.9632-9.4208 9.4208-0.6144 0.6144-1.4336-13.5168-1.6384-24.3712-0.2048-1.8432 14.1312-1.024 15.5648-2.4576 1.8432-1.6384 4.3008-7.168 5.5296-10.24 1.2288-2.8672 2.4576-5.9392 1.024-9.216-0.8192-1.2288-0.8192-2.048-3.072-2.048-2.2528 0.2048-3.2768 1.8432-4.5056 2.4576-1.2288 0.6144-4.7104 0.4096-6.144 1.4336-2.048 1.2288-4.7104 3.4816-6.7584 4.5056-2.4576 1.6384-2.8672 3.4816-2.4576 3.6864 7.5776-3.072 9.216-3.4816 10.8544-3.8912 0.6144 0 0.2048 0.8192 0.2048 1.8432 0 3.8912-1.6384 5.9392-2.8672 9.0112-2.4576 0.6144-4.9152 0.6144-7.5776 0.2048-1.8432-0.2048-4.7104-1.6384-6.5536-2.048-1.024-0.2048-4.3008 1.024-4.7104 3.4816-0.6144 4.5056 0.4096 8.8064 0.6144 14.9504 0.2048 9.8304-0.2048 22.1184 0 29.4912 0.2048 1.6384 0.4096 3.4816 1.024 3.8912 0.8192 0.6144 6.9632 0.6144 8.8064-0.6144 2.048-1.6384 1.024-5.12 1.6384-12.4928 0.2048-0.6144 0.6144-1.2288 1.024-1.8432 2.2528-3.2768 5.7344-5.9392 10.0352-8.8064 2.6624 7.3728 6.3488 13.7216 10.6496 19.0464 2.2528 2.048 11.0592 4.096 14.7456 0.2048 6.9632-6.9632 7.9872-12.288 9.0112-19.456 0.2048-1.4336 0.2048-2.2528 0-5.3248 0-1.2288-1.024-1.024-1.4336 1.024z m-236.544-39.7312c-0.2048 0.2048-0.6144 0.6144-0.8192 1.2288 0.4096 0 1.024-0.4096 1.6384-0.8192-0.4096-0.4096-0.8192-0.4096-0.8192-0.4096z" fill="#971F30" p-id="4519"></path><path d="M445.8496 764.3136c4.7104-2.048 9.0112-4.7104 13.1072-7.5776h10.4448v51.8144h-11.4688V768c-3.6864 2.6624-7.7824 4.9152-12.288 6.7584v-10.4448zM494.1824 795.4432c0.8192 4.3008 2.6624 6.3488 5.5296 6.3488 5.9392 0 8.3968-5.5296 7.9872-16.384-2.8672 2.2528-6.3488 3.4816-10.24 3.2768-9.4208-1.024-14.5408-6.144-15.5648-15.7696 0.8192-10.8544 6.9632-16.7936 18.432-17.6128 12.6976-0.2048 18.8416 7.5776 18.6368 23.1424 0.2048 11.0592-1.2288 18.8416-4.096 23.3472-3.072 4.7104-7.9872 6.9632-14.9504 6.9632-11.264 0.2048-16.9984-4.3008-17.2032-13.5168h11.4688z m6.7584-14.1312c4.3008-0.2048 6.5536-3.072 6.7584-8.8064-0.2048-5.9392-2.4576-9.216-6.7584-9.4208-4.9152 0-7.3728 3.072-7.3728 9.4208 0 5.7344 2.4576 8.8064 7.3728 8.8064zM535.1424 794.0096c0.2048 4.7104 2.2528 7.3728 6.3488 7.9872 4.096-0.4096 6.3488-3.072 6.7584-7.9872-0.2048-5.9392-4.3008-8.6016-12.4928-8.3968V778.24c8.6016-0.2048 12.6976-2.8672 12.4928-8.192-0.2048-4.5056-2.2528-6.7584-6.3488-6.9632-3.4816 0.6144-5.5296 2.8672-6.144 6.9632H524.288c0.6144-9.4208 6.3488-14.1312 17.6128-14.5408 10.8544 1.024 16.7936 5.3248 17.6128 13.1072-0.2048 6.9632-3.4816 11.264-9.8304 12.9024 6.7584 1.8432 10.24 6.5536 10.24 13.9264-1.024 8.192-7.168 12.6976-18.432 13.5168-11.6736 0-17.6128-4.9152-17.6128-14.9504h11.264zM599.6544 756.736v9.6256l-15.9744 42.1888h-11.0592l16.5888-43.2128h-23.1424v-8.3968h33.5872z" fill="#971F30" p-id="4520"></path><path d="M374.9888 235.3152c6.7584 0.2048 13.7216 2.048 15.5648 3.2768 2.6624 1.6384 8.192 8.192 8.3968 12.9024 1.024 27.648-11.0592 44.4416-5.7344 72.2944 6.9632 36.0448 24.1664 63.0784 31.3344 95.6416 29.2864-7.9872 68.8128-53.6576 74.752-85.1968 3.2768-17.6128-0.6144-36.6592-4.096-53.6576-2.6624-12.9024-5.5296-23.552-1.024-35.84 3.072-8.192 12.288-9.8304 21.2992-10.24 15.7696 0.8192 19.456 6.144 23.552 14.1312 5.5296 17.8176-9.6256 28.672-5.3248 63.0784 4.3008 35.2256 22.528 93.3888 37.4784 106.0864 26.4192-19.0464 60.6208-47.5136 68.8128-83.7632 6.7584-29.696-23.9616-80.6912-0.6144-94.6176 11.6736-7.9872 24.9856-6.3488 33.3824 0.2048 2.6624 2.048 4.3008 5.7344 6.144 7.7824 1.2288 1.024 2.048 7.5776 1.024 16.384-0.8192 7.3728-4.9152 15.1552-5.9392 24.7808-2.048 17.408-0.6144 38.5024 3.4816 52.8384 10.0352 37.2736 44.8512 75.5712 32.9728 127.1808-11.0592 48.128-45.8752 59.392-55.296 132.9152-5.5296 43.008 26.624 101.376 22.1184 125.952-1.4336 6.7584-3.2768 12.4928-11.6736 16.1792-8.6016 3.072-16.5888 0.4096-20.8896-3.072-22.1184-11.8784-35.0208-95.4368-27.0336-144.9984 6.9632-43.8272 19.0464-66.9696 49.152-114.4832 11.8784-29.696 10.6496-60.8256-13.1072-94.8224-23.552 25.6-48.128 52.224-83.7632 71.68-1.2288 49.7664-47.9232 80.0768-55.296 134.5536-2.4576 18.0224 0.6144 52.0192 10.8544 81.7152 12.288 33.792 16.5888 57.1392 2.8672 66.3552-8.3968 4.5056-14.5408 4.9152-23.552 1.2288-7.3728-3.4816-17.8176-26.0096-23.552-54.8864-8.6016-43.008-9.4208-100.7616 5.12-137.6256 16.1792-41.1648 59.8016-69.0176 43.008-123.0848-3.072-11.4688-7.9872-27.0336-15.9744-39.7312-1.024 0.4096-2.048 1.024-3.072 1.4336-13.1072 27.648-53.0432 56.7296-80.6912 70.2464-1.2288 47.3088-51.6096 79.4624-55.296 135.9872-4.3008 66.1504 22.3232 94.208 21.0944 134.3488-0.8192 6.5536-3.6864 11.6736-10.6496 15.1552-6.5536 2.6624-11.4688 2.6624-19.456 0-23.552-8.3968-49.7664-122.4704-11.8784-212.3776 10.24-24.576 31.9488-40.7552 38.912-70.2464 6.7584-29.0816-19.456-75.776-19.456-75.776s-62.464 78.0288-97.28 74.3424c-6.7584-4.9152-9.6256-5.12-10.4448-16.384 0-11.4688 19.6608-20.2752 31.3344-29.696 22.9376-18.6368 45.8752-36.864 60.0064-67.584 13.5168-29.696-6.144-61.2352-2.8672-98.7136-0.8192-8.6016 8.6016-11.6736 21.2992-11.8784z" fill="#971F30" p-id="4521"></path><path d="M140.0832 608.256l3.2768 13.9264-64.1024 14.7456-6.3488-27.648c-3.072-14.7456 0.6144-23.552 11.4688-26.2144 8.3968-1.6384 14.5408 1.6384 18.6368 9.6256h0.4096c-1.4336-7.3728 2.4576-12.288 11.4688-14.7456 0.8192-0.4096 1.4336-0.8192 2.048-0.8192 7.3728-2.4576 12.288-4.7104 14.5408-6.9632l3.4816 14.9504c-5.3248 2.6624-10.8544 4.9152-16.7936 6.3488-5.5296 1.8432-7.7824 4.3008-6.9632 7.7824l3.4816 14.7456 25.3952-5.7344z m-36.4544 8.3968l-2.6624-11.4688c-1.4336-6.5536-5.3248-9.0112-11.264-7.7824-5.5296 1.2288-7.3728 5.12-5.7344 11.6736l2.6624 11.4688 16.9984-3.8912zM64.7168 565.8624l-3.072-44.4416 11.0592-0.8192 2.048 30.1056 15.1552-1.024-1.8432-27.8528 11.0592-0.8192 1.8432 27.8528 17.408-1.2288-2.048-31.1296 11.0592-0.8192 3.072 45.4656-65.7408 4.7104zM129.8432 473.088l-56.5248 21.504 0.4096 0.4096 54.272 4.096-1.024 13.312-65.536-5.12 1.6384-21.0944L116.736 465.1008l-0.4096-0.4096-51.6096-3.8912 1.024-13.312 65.536 5.12-1.4336 20.48zM142.7456 406.7328l-3.072 11.4688-59.1872 1.8432 0.2048 0.4096 54.0672 14.9504-3.4816 12.9024-63.488-17.408 6.144-22.528 49.9712-0.8192v-0.4096L81.92 379.904l5.9392-21.504 63.488 17.408-3.4816 12.9024-54.272-14.9504h-0.4096l49.5616 32.9728zM163.84 351.232l-5.9392 13.1072-60.0064-26.8288 5.9392-13.1072L163.84 351.232zM189.44 305.3568l-60.2112-6.7584 0.2048 0.4096 46.2848 28.672-6.9632 11.264L112.64 304.3328l11.0592-18.0224 57.344 5.9392-0.2048-0.4096L137.216 264.6016l6.9632-11.264 55.9104 34.6112-10.6496 17.408zM222.6176 169.1648l28.4672 29.9008c10.6496 12.288 9.6256 24.9856-3.4816 38.0928-14.1312 12.6976-26.8288 13.312-38.5024 1.6384L180.6336 208.896l10.4448-9.8304 24.7808 26.0096c5.12 5.7344 9.6256 9.0112 13.1072 9.6256 4.096 0.8192 7.9872-0.8192 12.0832-4.5056 3.8912-3.8912 5.7344-7.5776 4.9152-11.4688-0.4096-3.4816-3.2768-7.9872-9.0112-13.5168l-24.7808-26.0096 10.4448-10.0352zM304.3328 191.6928l-52.0192-30.9248v0.4096l30.5152 45.056-11.0592 7.3728-36.864-54.4768 17.6128-11.8784L302.4896 176.128v-0.4096L273.408 133.12l11.0592-7.3728 36.864 54.4768-16.9984 11.4688zM347.5456 167.7312l-12.9024 6.3488-29.2864-58.9824 12.9024-6.3488 29.2864 58.9824zM338.5344 98.7136l14.5408-4.9152 32.768 43.8272 0.4096-0.2048-0.2048-54.6816 13.312-4.5056-2.048 70.2464-14.5408 4.9152-44.2368-54.6816zM417.1776 74.752l44.032-7.168 1.8432 10.8544-29.696 4.9152 2.4576 15.1552 27.648-4.5056 1.8432 10.8544-27.648 4.5056 2.8672 17.2032 30.72-4.9152 1.8432 10.8544-45.056 7.3728-10.8544-65.1264zM495.4112 131.2768l-14.336 0.2048-1.024-65.7408 28.2624-0.4096c15.1552 0 22.7328 5.5296 23.3472 16.5888-0.2048 8.6016-4.5056 13.9264-13.312 16.1792v0.4096c7.3728 0.2048 11.4688 4.9152 12.0832 14.336 0.2048 1.024 0.4096 1.6384 0.4096 2.048 0.8192 7.7824 2.048 12.9024 3.8912 15.5648l-15.36 0.2048c-1.4336-5.7344-2.4576-11.4688-2.8672-17.8176-0.6144-5.7344-2.6624-8.3968-6.3488-8.3968l-15.1552 0.2048 0.4096 26.624z m-0.6144-37.2736l11.8784-0.2048c6.7584-0.2048 10.0352-3.2768 9.8304-9.4208 0-5.7344-3.4816-8.3968-10.24-7.9872l-11.8784 0.2048 0.4096 17.408zM581.8368 89.4976c0.6144-6.5536-2.4576-10.4448-9.4208-11.264-6.9632-0.4096-10.8544 1.8432-11.8784 6.9632-1.2288 4.9152 2.4576 8.3968 10.8544 10.8544 0.2048 0 0.8192 0.2048 1.6384 0.6144 14.9504 5.12 21.7088 12.0832 20.2752 21.0944-2.048 13.5168-12.288 19.456-30.9248 17.408-16.9984-2.2528-24.576-10.6496-22.3232-24.7808l14.336 1.8432c-1.024 7.5776 2.048 12.0832 9.4208 13.5168 8.6016 0.8192 13.312-1.2288 14.336-6.7584 0.6144-4.5056-3.072-7.9872-11.264-10.8544-1.2288-0.4096-2.048-0.8192-2.4576-1.024-14.1312-5.12-20.48-12.0832-19.2512-20.8896 2.4576-13.312 12.4928-19.2512 30.3104-17.8176 14.1312 2.6624 20.6848 10.24 19.6608 23.1424l-13.312-2.048zM616.0384 144.7936L602.112 141.312l16.1792-63.6928 13.9264 3.4816-16.1792 63.6928zM655.5648 87.2448l49.9712 19.8656-4.096 10.24-18.432-7.3728-20.2752 50.7904-13.312-5.3248 20.2752-50.7904-18.432-7.3728 4.3008-10.0352zM719.6672 165.6832l3.8912-49.7664 14.336 8.8064-4.096 32.9728 27.648-18.432 12.288 7.5776-42.1888 26.4192-11.0592 18.2272-11.8784-7.3728 11.0592-18.432zM795.4432 205.824c16.7936-14.9504 32.5632-15.1552 47.104-0.6144 13.7216 15.1552 12.4928 30.72-3.2768 46.6944-16.384 14.5408-31.5392 14.5408-46.08 0-14.1312-15.36-13.312-30.72 2.2528-46.08z m10.24 10.8544c-11.4688 10.8544-13.5168 20.48-5.7344 28.672 7.5776 7.9872 17.2032 6.5536 28.672-4.5056 11.6736-11.0592 13.7216-20.6848 6.144-28.672-7.5776-7.9872-17.408-6.5536-29.0816 4.5056zM820.8384 282.624l54.272-37.2736 24.1664 35.2256-9.0112 6.144-16.1792-23.7568-12.9024 8.8064 15.1552 22.1184-9.0112 6.144-15.1552-22.1184-23.1424 15.9744-8.192-11.264zM919.552 374.9888c7.3728-3.2768 9.6256-8.8064 6.9632-16.5888-3.2768-7.168-12.288-8.192-27.0336-3.2768-14.1312 5.9392-20.2752 12.6976-17.8176 20.2752 3.2768 7.7824 8.6016 10.24 16.1792 7.5776l5.3248 14.1312c-13.7216 4.5056-23.9616-1.6384-30.5152-18.432-5.9392-16.9984 1.2288-29.4912 21.504-37.6832 21.0944-7.168 35.0208-2.6624 41.984 13.5168 6.144 16.5888 2.2528 28.0576-11.264 34.2016l-5.3248-13.7216zM885.3504 412.4672l64.512-12.6976 2.6624 13.7216-25.3952 5.12 4.9152 24.576 25.3952-5.12 2.8672 14.1312-64.512 12.6976-2.6624-13.7216 28.2624-5.5296-4.9152-24.9856-28.2624 5.5296-2.8672-13.7216zM897.4336 494.7968l-1.024-14.336 65.7408-4.3008 1.024 14.336-65.7408 4.3008zM896.2048 549.0688l56.5248-21.9136-0.4096-0.4096-54.272-3.8912 1.024-13.312 65.536 4.5056-1.4336 21.0944-53.4528 21.504 0.4096 0.4096 51.4048 3.6864-0.8192 13.312-65.536-4.5056 1.024-20.48zM893.3376 578.56l57.344 40.1408-4.3008 16.384-69.632 5.7344 3.6864-13.9264 14.7456-1.2288 6.7584-25.3952-12.0832-8.3968 3.4816-13.312z m13.5168 46.2848l29.4912-1.4336v-0.4096l-24.576-16.5888-4.9152 18.432z" fill="#971F30" p-id="4522"></path><path d="M512.8192 147.0464c-202.752 0-367.0016 164.2496-367.0016 367.0016 0 202.752 164.2496 367.0016 367.0016 367.0016 202.752 0 367.0016-164.2496 367.0016-367.0016 0-202.5472-164.2496-367.0016-367.0016-367.0016z m0 712.4992c-190.6688 0-345.2928-154.624-345.2928-345.2928S322.1504 168.96 512.8192 168.96C703.6928 168.7552 858.112 323.3792 858.112 514.048c0 190.8736-154.4192 345.4976-345.2928 345.4976z" fill="#971F30" p-id="4523"></path><path d="M512.8192 33.1776C247.3984 33.1776 31.9488 248.6272 31.9488 514.048c0 265.6256 215.2448 480.8704 480.8704 480.8704 265.6256 0 480.8704-215.2448 480.8704-480.8704 0-265.4208-215.2448-480.8704-480.8704-480.8704z m0 948.6336C254.5664 981.8112 45.2608 772.5056 45.2608 514.048c0-258.2528 209.3056-467.7632 467.7632-467.7632S980.5824 255.7952 980.5824 514.048c0 258.4576-209.5104 467.7632-467.7632 467.7632z" fill="#971F30" p-id="4524"></path><path d="M512.8192 11.264C235.1104 11.264 10.0352 236.3392 10.0352 514.048s225.0752 502.9888 502.9888 502.9888C790.7328 1017.0368 1015.808 791.9616 1015.808 514.048 1015.808 236.3392 790.7328 11.264 512.8192 11.264z m0 994.5088C241.2544 1005.7728 21.0944 785.6128 21.0944 514.048S241.2544 22.3232 512.8192 22.3232 1004.544 242.4832 1004.544 514.048 784.384 1005.7728 512.8192 1005.7728z" fill="#971F30" p-id="4525"></path><path d="M382.1568 867.5328c-2.2528-1.024-4.7104 0-7.3728-0.4096-4.9152-0.8192-11.8784-1.6384-16.384-2.6624-1.4336-0.6144-7.3728 0.4096-9.0112 2.6624 1.8432-0.2048 3.8912-0.4096 6.144-0.2048 1.4336 0.2048 3.2768 0.4096 5.9392 1.024 3.2768 0.4096 6.3488 1.024 9.216 1.6384 4.7104 1.024 5.7344 1.4336 8.8064 3.2768 1.2288 0.6144 1.6384 3.072 1.8432 5.3248 0.4096 2.8672 0.2048 4.7104-0.2048 6.9632-0.8192 4.096-2.6624 8.6016-4.5056 13.1072-1.6384 4.3008-3.2768 9.6256-4.3008 12.288-1.4336 4.3008-4.7104 8.8064-6.5536 12.4928-0.2048 0.6144-1.2288 2.8672-2.4576 2.4576-2.6624-2.4576-5.9392-6.9632-6.5536-8.3968-1.024-0.6144-0.4096-6.144 0.4096-7.3728 2.048-2.2528 4.9152-0.8192 7.7824-4.3008 2.2528-2.8672 1.2288-4.7104 5.3248-11.6736 5.5296-9.216 5.5296-10.6496 2.8672-14.336-0.4096-0.6144-0.4096-1.2288-1.4336-1.8432-1.8432-1.2288-4.9152-2.048-4.9152-1.2288-0.4096 4.5056 1.2288 4.9152 2.4576 7.3728 1.4336 1.8432-2.8672 6.5536-5.9392 10.0352-0.4096 0.6144-1.024 1.024-1.2288 1.4336 0.4096 0.2048 0.8192 0.4096 1.024 0.6144 0.2048 0.4096-0.8192 2.048-1.4336 3.072-0.6144 0-1.6384-0.4096-2.048-1.024 0-0.2048 0.4096-1.024 0.8192-1.8432-0.6144 0-1.024-0.2048-1.4336-0.6144-1.024-1.4336-0.6144-4.096-0.2048-6.5536 0.2048-1.2288 0.4096-3.072 0.8192-4.7104 0.4096-1.4336 1.6384-2.6624 1.6384-4.7104 0-1.2288-0.8192-2.6624-1.024-3.6864-0.2048-1.2288 0-2.2528-0.2048-2.8672-0.6144-0.8192-0.4096-2.6624-1.6384-3.072-3.2768-0.8192-3.6864 6.9632-5.5296 8.192-1.2288 0.8192-3.8912 0.2048-6.144-0.2048-1.024-0.2048-2.8672-0.4096-3.072-0.2048-0.6144 0.4096 0.2048 1.4336 0.8192 2.6624 0.4096 0.8192 0.2048 1.2288 0.6144 2.2528 0.2048 0.8192 0.6144 1.2288 0.2048 2.048-0.2048 1.2288-1.4336 2.4576-1.024 3.072 0.4096 0.8192 2.2528 0.4096 3.8912 1.024-0.4096 1.4336-5.12 3.072-4.9152 3.6864 0 0.4096 1.024 0.8192 1.8432 1.024 2.6624-0.4096 3.8912-1.024 5.7344-0.6144 0.6144 2.2528 0.6144 3.6864 0.2048 4.7104-0.8192 2.4576-9.4208 3.072-13.312 0.8192 0.4096-1.4336 1.8432-4.096 1.2288-3.8912-2.048 0.2048-2.8672 1.6384-5.3248 2.2528-1.4336 0.4096-1.8432 0.4096-2.8672 0 1.6384-4.096 4.9152-13.312 6.144-14.7456 1.8432-1.8432 3.072-5.9392 3.2768-7.3728 0.4096-1.6384-0.4096-3.2768-1.2288-2.8672-4.096 1.4336-6.9632 6.3488-10.8544 12.288-1.4336 2.4576-8.8064 16.9984-11.264 23.7568-0.4096 1.8432 0.6144 3.8912 1.6384 4.096 1.6384 0.4096 4.096 0 4.7104-0.8192 1.6384-2.2528 2.8672-6.144 4.9152-9.8304 3.2768 1.4336 6.3488 2.4576 9.216 2.8672 3.072 0 5.3248 0.2048 7.3728 0s3.6864-0.8192 4.5056-1.024c1.024-0.2048 1.8432 0 2.048 0.6144-0.6144 1.4336-0.6144 3.072-1.4336 3.6864-3.2768 1.6384-5.3248 3.072-4.9152 3.4816 1.2288 0.4096 3.6864-0.2048 5.12 0 0.2048 0.4096 0.6144 0.8192 0 2.048 0 1.024-0.2048 2.048-1.2288 2.4576-1.2288 0.8192-1.6384 1.2288-2.4576 1.2288-1.4336 0-3.072-1.2288-5.12-1.8432-2.2528-0.6144-3.2768-0.2048-4.3008-1.2288-0.4096-0.4096-0.2048-1.024 1.024-1.4336 1.024-0.4096 1.8432-1.4336 1.6384-2.048-1.024-0.2048-7.5776 0.6144-7.9872 1.6384-1.2288 3.072-0.4096 3.2768-0.8192 4.5056-0.8192 2.4576-1.2288 3.072-0.8192 3.6864 0 0.4096 1.6384 1.024 2.8672 1.024 2.4576-0.2048 2.6624-0.4096 4.096-0.4096s7.168 1.024 10.4448 2.048c2.048 0.6144 7.9872 1.2288 8.6016 1.8432 1.2288 3.072 3.4816 6.5536 3.8912 7.5776 0.2048 4.096 2.048 5.12 2.2528 6.5536 0.4096 1.6384-1.2288 3.072-0.8192 3.4816 0.2048 0.4096 1.8432 0.8192 2.6624 0.6144 2.4576-0.2048 4.096-1.024 5.5296-1.8432 1.8432-1.024 6.5536-15.9744 11.6736-27.2384 2.8672-6.7584 3.8912-14.1312 6.9632-21.7088 0.6144-2.8672 1.6384-5.7344 1.8432-8.192 0.4096-3.6864-0.4096-6.5536-1.2288-9.0112-1.6384-3.8912-2.6624-5.3248-6.5536-6.9632z m78.6432 32.1536c-0.2048-0.4096-0.8192-0.6144-1.2288-0.8192-0.4096 0-1.2288 0-1.6384 0.4096-4.3008 5.3248-8.192 9.0112-12.4928 14.1312-4.096 4.5056-6.5536 9.0112-9.4208 12.6976-5.5296 7.168-9.216 12.0832-16.1792 20.0704-0.4096 0.4096-1.2288 1.2288-1.4336 2.048-0.4096 0.8192-1.2288 2.6624 0.2048 2.8672h2.8672c1.6384-0.4096 6.144-2.4576 8.6016-4.5056 3.072-3.4816 9.0112-12.9024 14.1312-19.8656 3.2768-4.5056 7.5776-9.216 10.24-13.312 4.7104-6.7584 6.5536-12.0832 6.3488-13.7216z m33.3824 55.0912c-8.192-3.2768-15.36-7.3728-24.1664-13.9264-9.8304-7.3728-16.7936-16.384-18.432-14.9504-1.2288 1.4336 3.4816 5.7344 7.3728 10.0352 4.9152 5.9392 6.9632 7.3728 10.6496 11.0592 4.096 4.5056 6.7584 9.4208 10.4448 11.8784 2.8672 1.6384 5.9392 2.2528 8.6016 2.6624 2.6624 0.2048 4.3008 0.4096 7.9872 0.2048 2.4576-0.4096 2.2528-1.6384 1.6384-3.072-0.6144-1.2288-1.8432-2.8672-4.096-3.8912z m-212.7872-124.7232c3.2768 2.8672 5.9392 5.12 7.9872 7.9872 0.8192-0.8192 1.024-1.6384 1.024-2.2528-0.8192-0.8192-0.6144-1.024-2.048-2.2528-4.5056-3.2768-8.8064-8.6016-9.6256-7.7824l-0.6144 0.6144c0.4096 1.2288 1.6384 2.4576 3.2768 3.6864z m7.7824 7.9872c-2.2528 2.6624-8.192 5.5296-16.5888 0.8192-1.4336-0.8192-4.5056-1.024-4.096-2.6624 2.2528-2.8672 6.7584-6.9632 9.4208-9.6256-0.4096-0.6144-0.8192-1.4336-1.024-2.048-0.4096-1.2288 0.4096-2.6624 2.2528-4.3008 1.6384-1.4336 3.2768-2.8672 4.5056-4.096 0.6144-0.6144 0.2048-2.8672-0.4096-3.4816-1.4336-1.6384-2.2528-5.12-3.4816-4.5056-1.6384 0.8192-1.2288 0.8192-2.6624 2.4576-0.6144 0.8192-1.024 1.6384-1.6384 2.4576-1.6384 1.6384-4.5056 4.5056-5.3248 4.7104-3.8912-0.8192-8.8064-3.6864-12.4928-5.12-1.6384-1.2288-0.6144-3.8912-1.024-5.7344-0.4096-1.2288-1.4336-3.072-2.2528-3.4816l-0.6144 0.6144c-1.2288 2.048-1.6384 4.096-2.8672 6.3488-2.048 3.4816-4.3008 7.168-6.3488 10.8544-0.4096 0.6144-0.6144 0.8192-0.8192 1.4336-0.2048 1.2288 0 1.6384 1.024 2.4576 0.6144 0.6144 1.4336 1.024 2.048 0.6144 2.8672-2.2528 6.144-6.144 8.6016-8.192 1.2288-1.024 1.8432-2.048 2.2528-1.6384 1.2288 1.024 3.072 2.2528 4.7104 3.6864 1.2288 1.024 2.8672 2.2528 2.8672 2.8672-3.072 3.4816-7.3728 6.9632-9.0112 9.0112-5.12-3.6864-4.7104-2.4576-6.7584-1.6384-0.6144 1.4336 3.4816 3.6864 2.6624 5.12-4.9152 5.12-12.9024 11.4688-19.0464 17.408-2.048 2.048-3.6864 4.5056-5.12 6.144-1.6384 1.6384-3.2768 4.096-3.8912 5.9392-0.6144 1.8432-0.6144 2.6624 0 3.2768 0.2048 0.2048 0.6144 0.4096 1.2288 0.4096 2.4576 0 3.2768-0.2048 6.7584-1.6384 1.4336-1.024 3.072-3.4816 6.7584-6.7584 1.8432-1.6384 13.7216-11.8784 15.1552-13.312 2.2528-2.048 3.6864-3.2768 5.12-4.7104 1.024 0.2048 3.072 2.048 6.9632 3.2768 1.6384 0.6144 2.8672 1.4336 5.5296 2.048 1.024 0 2.4576 0 4.7104 2.048 6.5536 5.3248 7.9872 5.7344 9.0112 4.9152 3.6864-2.8672 2.6624-2.8672 3.8912-5.3248 1.8432-3.4816 3.2768-6.5536 1.8432-9.216-0.8192-0.2048-1.4336-0.8192-1.8432-1.4336z m308.8384 96.256c-1.2288 6.5536-3.072 12.288-7.3728 15.7696-0.8192 0.6144-2.6624 1.8432-4.096 1.6384-1.6384-0.2048-3.6864-1.6384-5.3248-4.3008-3.4816-5.3248-5.5296-10.8544-5.3248-15.1552 2.048-1.2288 4.5056-3.072 7.7824-5.5296 2.048-2.6624 4.096-5.3248 3.2768-6.7584-0.6144-0.6144-1.2288-0.8192-6.144 0.6144-2.8672 1.024-6.144 3.4816-6.9632 3.6864-1.2288-0.2048-2.048-2.4576-3.6864-3.2768-1.6384-1.2288-5.12-0.6144-5.5296 0-1.2288 2.2528-0.2048 8.192-0.2048 11.4688-0.6144 1.4336-6.7584 6.9632-9.4208 9.4208-0.6144 0.6144-1.4336-13.5168-1.6384-24.3712-0.2048-1.8432 14.1312-1.024 15.5648-2.4576 1.8432-1.6384 4.3008-7.168 5.5296-10.24 1.2288-2.8672 2.4576-5.9392 1.024-9.216-0.8192-1.2288-0.8192-2.048-3.072-2.048-2.2528 0.2048-3.2768 1.8432-4.5056 2.4576-1.2288 0.6144-4.7104 0.4096-6.144 1.4336-2.048 1.2288-4.7104 3.4816-6.7584 4.5056-2.4576 1.6384-2.8672 3.4816-2.4576 3.6864 7.5776-3.072 9.216-3.4816 10.8544-3.8912 0.6144 0 0.2048 0.8192 0.2048 1.8432 0 3.8912-1.6384 5.9392-2.8672 9.0112-2.4576 0.6144-4.9152 0.6144-7.5776 0.2048-1.8432-0.2048-4.7104-1.6384-6.5536-2.048-1.024-0.2048-4.3008 1.024-4.7104 3.4816-0.6144 4.5056 0.4096 8.8064 0.6144 14.9504 0.2048 9.8304-0.2048 22.1184 0 29.4912 0.2048 1.6384 0.4096 3.4816 1.024 3.8912 0.8192 0.6144 6.9632 0.6144 8.8064-0.6144 2.048-1.6384 1.024-5.12 1.6384-12.4928 0.2048-0.6144 0.6144-1.2288 1.024-1.8432 2.2528-3.2768 5.7344-5.9392 10.0352-8.8064 2.6624 7.3728 6.3488 13.7216 10.6496 19.0464 2.2528 2.048 11.0592 4.096 14.7456 0.2048 6.9632-6.9632 7.9872-12.288 9.0112-19.456 0.2048-1.4336 0.2048-2.2528 0-5.3248 0-1.2288-1.024-1.024-1.4336 1.024z m112.0256-14.7456c-2.048-0.6144-4.9152 0.8192-9.216 0.2048-5.9392-1.024-8.3968-3.4816-16.7936-7.7824-2.2528-1.024-4.096-2.048-6.144-3.2768-3.2768-2.048-5.3248-3.2768-7.5776-4.9152-0.8192-0.6144-3.072-2.048-1.4336-3.8912 3.4816-3.4816 6.5536-7.3728 9.6256-10.0352 2.4576-1.2288 4.9152-1.8432 8.3968-3.072 0.4096-0.2048 0.6144-0.8192 0.6144-1.2288 0-1.4336-0.4096-2.4576-1.2288-2.8672-1.8432-1.024-2.2528-0.8192-3.6864-1.024-2.2528 0-4.096 0.2048-5.7344 1.2288-3.4816 1.6384-5.7344 4.9152-8.192 7.7824-1.2288 1.4336-3.072 2.8672-4.096 4.096-1.024 1.024-2.048 1.4336-2.2528 1.024-2.2528-3.4816-3.072-10.4448-3.2768-15.5648 0-0.2048-0.6144-2.2528-1.4336-3.072-0.8192-0.8192-2.2528-0.6144-2.8672-0.6144-3.2768-0.6144-5.7344-0.6144-6.7584 1.4336 1.024 4.7104 2.8672 8.3968 3.8912 11.8784 1.4336 4.9152 3.2768 9.4208 2.6624 12.4928-1.024 2.2528-3.6864 5.5296-8.3968 8.3968-1.6384 0.8192-2.2528 1.024-3.6864 1.4336-1.024 0.4096-2.048 0.4096-2.6624 0.8192-1.024 0.8192-1.6384 1.4336-1.024 2.6624 1.4336 2.4576 2.048 2.048 4.3008 1.8432 2.4576 0 4.096-0.8192 5.12-1.2288 2.6624-1.8432 3.8912-2.8672 7.3728-4.7104 0.8192-0.2048 1.2288 0.8192 1.4336 1.8432 0.8192 6.5536 0.8192 10.24 0.2048 15.36-0.6144 5.5296-1.2288 9.6256-3.4816 14.1312-1.2288 2.6624-0.8192 3.8912 0.4096 3.8912 0.6144 0 0.6144-0.8192 2.8672-3.072 1.6384-2.048 4.7104-4.5056 5.5296-5.9392 1.4336-2.4576 1.4336-5.5296 2.4576-10.6496 0.2048-3.4816-0.2048-6.3488-1.6384-17.6128 0-0.4096-0.2048-1.024-0.2048-1.4336 0-0.4096 0.2048-0.8192 0.6144-1.6384 0.6144-1.4336 1.024-1.8432 2.048-2.8672 4.096 4.096 6.144 7.168 8.6016 9.4208 1.4336 1.4336 3.2768 2.2528 5.12 3.4816 6.5536 4.7104 12.9024 8.8064 19.2512 12.288 3.4816 1.6384 8.6016-1.024 13.312-2.8672 0.6144-0.2048 2.4576-1.6384 2.4576-2.4576-0.2048-2.048-0.2048-2.8672-4.5056-3.8912z m45.056-117.5552c-0.2048 0-0.2048 0 0 0-1.024-1.2288-1.024-1.2288-1.4336-0.8192-0.2048 0.2048-5.9392 4.3008-7.7824 6.144 0.8192 0 1.8432 0.6144 2.2528 1.024 2.6624-2.6624 4.9152-4.7104 6.9632-6.3488z m-8.8064 48.5376c1.2288-0.4096 1.8432-1.4336 2.048-2.048 0.2048-1.6384-12.4928-14.7456-13.9264-14.9504-1.2288-0.4096-8.8064 1.4336-7.9872 2.4576 1.2288 1.6384 3.2768 2.2528 5.12 3.8912 5.12 4.7104 10.8544 10.0352 11.8784 10.4448 1.2288 0.4096 2.2528 0.4096 2.8672 0.2048z m50.9952-3.8912c-1.2288-0.4096-3.6864-1.6384-4.3008-1.4336-1.024 0.2048-4.096 2.6624-7.7824 5.9392-0.6144 0.4096-0.8192 0.6144-1.6384 1.024s-1.024 0.8192-1.4336 0.4096c-1.2288-1.024-2.2528-2.4576-2.6624-3.6864-0.4096-1.4336-0.4096-2.8672-0.4096-4.096-0.4096-2.048-2.4576-3.072-3.2768-4.3008-0.4096-2.048 0.2048-2.4576 0.8192-4.3008 0.4096-1.4336 1.8432-2.6624 3.072-3.4816 0.8192-0.6144 1.8432 0.2048 2.8672-0.2048 2.048-1.024 4.096-2.2528 5.5296-3.072 2.2528-1.6384 1.024-2.6624-1.024-5.12-2.8672-2.6624-7.9872-3.072-11.0592-2.2528-1.6384 0.2048-4.9152-4.9152-7.7824-10.4448-1.2288-2.2528-1.8432-4.7104-2.8672-6.7584-2.6624-5.3248-4.9152-6.144-5.9392-6.144-1.6384 0.2048-1.8432 0.8192-3.2768 2.048-0.4096 0.4096-1.024 0.8192-1.4336 1.2288 1.2288 1.4336 1.8432 2.8672 1.2288 3.2768-0.6144 1.024-3.4816 2.8672-3.6864 5.3248-1.2288 1.4336-2.6624 2.2528-3.8912 3.072-0.8192 0.6144-1.4336 1.024-1.6384 1.024-0.8192-1.4336-1.024-5.5296-1.8432-6.9632l0.4096-0.4096c-0.8192 0-1.2288 0.2048-0.8192 1.6384 0.2048 1.024 1.024 3.072 1.4336 5.12 0.4096 2.4576 1.024 5.12 0.8192 5.5296-0.8192 0.8192-2.048 1.8432-3.2768 2.6624 0.2048 1.8432 0.2048 4.3008 0 4.7104-0.2048 0.6144-0.4096 1.2288-1.2288 2.048-1.024-1.2288-3.072-4.5056-3.4816-4.9152 0.4096-0.2048 1.024-0.8192 1.8432-1.4336-0.8192-1.2288-2.048-2.6624-3.2768-2.8672-1.4336-0.2048-3.072 0.4096-3.4816 1.024-1.024 1.024 4.9152 7.3728 10.4448 14.9504 3.6864 5.12 6.9632 12.288 8.8064 14.7456-1.4336 4.096-3.072 6.9632-4.5056 11.0592-0.6144 1.4336-1.8432 2.8672-3.072 2.8672-1.2288-1.2288-2.2528-1.6384-3.2768-1.8432-1.8432-0.6144-2.8672-0.4096-4.096 0.2048-0.2048 0.2048-1.8432 1.024-1.2288 2.048 0.8192 1.8432 2.4576 3.8912 3.6864 6.3488 0.4096 1.024 5.12 13.7216 5.9392 14.1312 1.6384 0.4096 2.2528 1.2288 3.4816 0.8192 1.6384-1.024 3.4816-2.048 3.4816-4.5056 0.6144-4.3008-5.3248-11.4688-5.12-14.1312 0.6144-1.2288 2.2528-3.072 2.8672-4.096 1.4336-1.6384 0.6144-2.6624 3.6864-7.9872 1.8432-3.2768 3.6864-5.12 5.3248-7.7824 2.8672-3.6864 2.2528-5.12 3.4816-6.9632 1.2288-1.6384 3.6864-2.8672 5.9392-4.9152 0.8192-0.8192 1.2288-2.2528 1.6384-3.072 0.6144-1.024 1.6384-1.6384 2.4576-2.6624 0.4096-0.4096 1.024-1.024 1.6384-1.024 1.8432 0 2.2528 0.4096 1.4336 2.2528-1.6384 3.072-3.4816 5.9392-3.2768 9.4208-0.4096 1.024-0.6144 0.8192-1.8432 2.6624-0.4096 0.8192-1.024 2.2528-1.8432 3.2768-2.6624 2.8672-6.144 6.5536-9.216 10.0352-0.6144 0.6144 0.2048 1.4336 0.8192 1.8432 0.8192 0.8192 4.3008 0.2048 6.7584-1.6384 1.024-0.8192 1.024-2.4576 1.6384-3.6864 0.4096-1.024 1.8432-5.9392 3.2768-3.4816 1.2288 1.8432 2.048 3.4816 2.4576 4.5056 0.8192 1.4336 1.8432 2.6624 2.4576 3.6864-0.8192 1.8432-1.8432 4.096-3.4816 6.144-2.2528 2.8672-4.9152 5.12-7.5776 8.8064-2.048 3.2768-1.4336 7.3728-0.6144 7.5776 2.2528 0 5.12-3.2768 7.9872-7.5776 2.048-3.2768 3.072-6.3488 4.5056-9.4208 0.2048-1.2288 1.8432-2.2528 3.2768-0.6144 1.8432 2.4576 0.8192 3.8912 1.8432 5.5296 0.8192 2.2528-2.4576 4.5056-6.3488 6.7584-1.6384 1.024-4.5056 3.072-5.3248 3.6864-0.6144 1.024 2.8672-0.2048 4.096-0.4096 1.8432-0.2048 3.072-1.4336 5.9392-2.2528 4.5056-1.2288 6.5536-0.6144 8.6016-2.048 1.6384-0.8192 3.6864-3.8912 3.2768-7.3728-0.8192-3.4816-3.8912-6.3488-7.5776-11.0592-0.6144-0.8192-0.6144-1.024 0-1.4336 0.2048-0.2048 0.6144-0.4096 1.024-0.6144 2.2528-1.4336 3.8912-2.048 4.7104-2.4576 1.6384-0.8192 4.096-1.024 4.9152-1.4336 2.2528-0.6144 0.6144-2.8672 0-3.072z m-44.2368-5.12c-0.2048 0.2048-1.2288 0-1.8432-0.4096-1.4336-1.4336-3.8912-4.7104-6.3488-8.3968 0.2048-1.024 1.024-2.8672 1.4336-4.096 0.2048-0.6144 0-1.2288 3.4816-0.2048 1.024 0.2048 1.6384 0.6144 2.8672 1.024 0.6144 7.3728 1.2288 10.24 0.4096 12.0832z m0-16.1792c-2.6624-0.2048-4.096 0-6.144-0.8192 0-2.6624 0.4096-5.5296 0.4096-7.9872 1.024-0.8192 2.6624-2.4576 3.4816-3.072 0.8192-0.2048 2.2528 0.4096 2.4576 1.6384 0.6144 1.6384-0.2048 9.216-0.2048 10.24z m3.4816-14.7456c0.4096-0.4096 1.6384-2.048 2.4576-1.6384 0.8192 0.6144 2.048 3.6864 2.4576 5.12-0.2048 0.8192-3.6864 2.4576-3.8912 2.6624-0.4096-1.8432-1.6384-4.5056-1.024-6.144z m6.3488 26.8288c-0.4096 0.4096-1.024 0.4096-1.024 0.4096s-0.6144-1.024 0-2.4576c0 0 1.4336-0.6144 1.6384 0.8192-0.2048 0.6144-0.4096 1.024-0.6144 1.2288z m-1.2288-9.4208c-1.024-0.8192-3.4816-1.4336-4.7104-2.2528-0.2048-2.8672 0.4096-4.9152 0.6144-4.9152 1.6384-1.024 4.7104-4.096 5.3248-3.4816 1.4336 3.2768 1.8432 4.9152 2.6624 6.3488 0 4.3008-0.8192 6.144-3.8912 4.3008z m-17.8176-5.7344c0-0.6144-0.2048-1.2288-0.4096-1.4336-0.2048 0.2048-1.4336 1.2288-2.4576 2.048 0.2048 0.4096 0.4096 0.6144 0.6144 0.8192 0.4096-0.4096 1.2288-1.024 2.2528-1.4336z m-382.3616 72.2944c-0.2048 0.2048-0.6144 0.6144-0.8192 1.2288 0.4096 0 1.024-0.4096 1.6384-0.8192-0.4096-0.4096-0.8192-0.4096-0.8192-0.4096z" fill="#971F30" p-id="4526"></path><path d="M445.8496 764.3136c4.7104-2.048 9.0112-4.7104 13.1072-7.5776h10.4448v51.8144h-11.4688V768c-3.6864 2.6624-7.7824 4.9152-12.288 6.7584v-10.4448zM494.1824 795.4432c0.8192 4.3008 2.6624 6.3488 5.5296 6.3488 5.9392 0 8.3968-5.5296 7.9872-16.384-2.8672 2.2528-6.3488 3.4816-10.24 3.2768-9.4208-1.024-14.5408-6.144-15.5648-15.7696 0.8192-10.8544 6.9632-16.7936 18.432-17.6128 12.6976-0.2048 18.8416 7.5776 18.6368 23.1424 0.2048 11.0592-1.2288 18.8416-4.096 23.3472-3.072 4.7104-7.9872 6.9632-14.9504 6.9632-11.264 0.2048-16.9984-4.3008-17.2032-13.5168h11.4688z m6.7584-14.1312c4.3008-0.2048 6.5536-3.072 6.7584-8.8064-0.2048-5.9392-2.4576-9.216-6.7584-9.4208-4.9152 0-7.3728 3.072-7.3728 9.4208 0 5.7344 2.4576 8.8064 7.3728 8.8064zM535.1424 794.0096c0.2048 4.7104 2.2528 7.3728 6.3488 7.9872 4.096-0.4096 6.3488-3.072 6.7584-7.9872-0.2048-5.9392-4.3008-8.6016-12.4928-8.3968V778.24c8.6016-0.2048 12.6976-2.8672 12.4928-8.192-0.2048-4.5056-2.2528-6.7584-6.3488-6.9632-3.4816 0.6144-5.5296 2.8672-6.144 6.9632H524.288c0.6144-9.4208 6.3488-14.1312 17.6128-14.5408 10.8544 1.024 16.7936 5.3248 17.6128 13.1072-0.2048 6.9632-3.4816 11.264-9.8304 12.9024 6.7584 1.8432 10.24 6.5536 10.24 13.9264-1.024 8.192-7.168 12.6976-18.432 13.5168-11.6736 0-17.6128-4.9152-17.6128-14.9504h11.264zM599.6544 756.736v9.6256l-15.9744 42.1888h-11.0592l16.5888-43.2128h-23.1424v-8.3968h33.5872z" fill="#971F30" p-id="4527"></path><path d="M374.9888 235.3152c6.7584 0.2048 13.7216 2.048 15.5648 3.2768 2.6624 1.6384 8.192 8.192 8.3968 12.9024 1.024 27.648-11.0592 44.4416-5.7344 72.2944 6.9632 36.0448 24.1664 63.0784 31.3344 95.6416 29.2864-7.9872 68.8128-53.6576 74.752-85.1968 3.2768-17.6128-0.6144-36.6592-4.096-53.6576-2.6624-12.9024-5.5296-23.552-1.024-35.84 3.072-8.192 12.288-9.8304 21.2992-10.24 15.7696 0.8192 19.456 6.144 23.552 14.1312 5.5296 17.8176-9.6256 28.672-5.3248 63.0784 4.3008 35.2256 22.528 93.3888 37.4784 106.0864 26.4192-19.0464 60.6208-47.5136 68.8128-83.7632 6.7584-29.696-23.9616-80.6912-0.6144-94.6176 11.6736-7.9872 24.9856-6.3488 33.3824 0.2048 2.6624 2.048 4.3008 5.7344 6.144 7.7824 1.2288 1.024 2.048 7.5776 1.024 16.384-0.8192 7.3728-4.9152 15.1552-5.9392 24.7808-2.048 17.408-0.6144 38.5024 3.4816 52.8384 10.0352 37.2736 44.8512 75.5712 32.9728 127.1808-11.0592 48.128-45.8752 59.392-55.296 132.9152-5.5296 43.008 26.624 101.376 22.1184 125.952-1.4336 6.7584-3.2768 12.4928-11.6736 16.1792-8.6016 3.072-16.5888 0.4096-20.8896-3.072-22.1184-11.8784-35.0208-95.4368-27.0336-144.9984 6.9632-43.8272 19.0464-66.9696 49.152-114.4832 11.8784-29.696 10.6496-60.8256-13.1072-94.8224-23.552 25.6-48.128 52.224-83.7632 71.68-1.2288 49.7664-47.9232 80.0768-55.296 134.5536-2.4576 18.0224 0.6144 52.0192 10.8544 81.7152 12.288 33.792 16.5888 57.1392 2.8672 66.3552-8.3968 4.5056-14.5408 4.9152-23.552 1.2288-7.3728-3.4816-17.8176-26.0096-23.552-54.8864-8.6016-43.008-9.4208-100.7616 5.12-137.6256 16.1792-41.1648 59.8016-69.0176 43.008-123.0848-3.072-11.4688-7.9872-27.0336-15.9744-39.7312-1.024 0.4096-2.048 1.024-3.072 1.4336-13.1072 27.648-53.0432 56.7296-80.6912 70.2464-1.2288 47.3088-51.6096 79.4624-55.296 135.9872-4.3008 66.1504 22.3232 94.208 21.0944 134.3488-0.8192 6.5536-3.6864 11.6736-10.6496 15.1552-6.5536 2.6624-11.4688 2.6624-19.456 0-23.552-8.3968-49.7664-122.4704-11.8784-212.3776 10.24-24.576 31.9488-40.7552 38.912-70.2464 6.7584-29.0816-19.456-75.776-19.456-75.776s-62.464 78.0288-97.28 74.3424c-6.7584-4.9152-9.6256-5.12-10.4448-16.384 0-11.4688 19.6608-20.2752 31.3344-29.696 22.9376-18.6368 45.8752-36.864 60.0064-67.584 13.5168-29.696-6.144-61.2352-2.8672-98.7136-0.8192-8.6016 8.6016-11.6736 21.2992-11.8784z" fill="#971F30" p-id="4528"></path><path d="M140.0832 608.256l3.2768 13.9264-64.1024 14.7456-6.3488-27.648c-3.072-14.7456 0.6144-23.552 11.4688-26.2144 8.3968-1.6384 14.5408 1.6384 18.6368 9.6256h0.4096c-1.4336-7.3728 2.4576-12.288 11.4688-14.7456 0.8192-0.4096 1.4336-0.8192 2.048-0.8192 7.3728-2.4576 12.288-4.7104 14.5408-6.9632l3.4816 14.9504c-5.3248 2.6624-10.8544 4.9152-16.7936 6.3488-5.5296 1.8432-7.7824 4.3008-6.9632 7.7824l3.4816 14.7456 25.3952-5.7344z m-36.4544 8.3968l-2.6624-11.4688c-1.4336-6.5536-5.3248-9.0112-11.264-7.7824-5.5296 1.2288-7.3728 5.12-5.7344 11.6736l2.6624 11.4688 16.9984-3.8912zM64.7168 565.8624l-3.072-44.4416 11.0592-0.8192 2.048 30.1056 15.1552-1.024-1.8432-27.8528 11.0592-0.8192 1.8432 27.8528 17.408-1.2288-2.048-31.1296 11.0592-0.8192 3.072 45.4656-65.7408 4.7104zM129.8432 473.088l-56.5248 21.504 0.4096 0.4096 54.272 4.096-1.024 13.312-65.536-5.12 1.6384-21.0944L116.736 465.1008l-0.4096-0.4096-51.6096-3.8912 1.024-13.312 65.536 5.12-1.4336 20.48zM142.7456 406.7328l-3.072 11.4688-59.1872 1.8432 0.2048 0.4096 54.0672 14.9504-3.4816 12.9024-63.488-17.408 6.144-22.528 49.9712-0.8192v-0.4096L81.92 379.904l5.9392-21.504 63.488 17.408-3.4816 12.9024-54.272-14.9504h-0.4096l49.5616 32.9728zM163.84 351.232l-5.9392 13.1072-60.0064-26.8288 5.9392-13.1072L163.84 351.232zM189.44 305.3568l-60.2112-6.7584 0.2048 0.4096 46.2848 28.672-6.9632 11.264L112.64 304.3328l11.0592-18.0224 57.344 5.9392-0.2048-0.4096L137.216 264.6016l6.9632-11.264 55.9104 34.6112-10.6496 17.408zM222.6176 169.1648l28.4672 29.9008c10.6496 12.288 9.6256 24.9856-3.4816 38.0928-14.1312 12.6976-26.8288 13.312-38.5024 1.6384L180.6336 208.896l10.4448-9.8304 24.7808 26.0096c5.12 5.7344 9.6256 9.0112 13.1072 9.6256 4.096 0.8192 7.9872-0.8192 12.0832-4.5056 3.8912-3.8912 5.7344-7.5776 4.9152-11.4688-0.4096-3.4816-3.2768-7.9872-9.0112-13.5168l-24.7808-26.0096 10.4448-10.0352zM304.3328 191.6928l-52.0192-30.9248v0.4096l30.5152 45.056-11.0592 7.3728-36.864-54.4768 17.6128-11.8784L302.4896 176.128v-0.4096L273.408 133.12l11.0592-7.3728 36.864 54.4768-16.9984 11.4688zM347.5456 167.7312l-12.9024 6.3488-29.2864-58.9824 12.9024-6.3488 29.2864 58.9824zM338.5344 98.7136l14.5408-4.9152 32.768 43.8272 0.4096-0.2048-0.2048-54.6816 13.312-4.5056-2.048 70.2464-14.5408 4.9152-44.2368-54.6816zM417.1776 74.752l44.032-7.168 1.8432 10.8544-29.696 4.9152 2.4576 15.1552 27.648-4.5056 1.8432 10.8544-27.648 4.5056 2.8672 17.2032 30.72-4.9152 1.8432 10.8544-45.056 7.3728-10.8544-65.1264zM495.4112 131.2768l-14.336 0.2048-1.024-65.7408 28.2624-0.4096c15.1552 0 22.7328 5.5296 23.3472 16.5888-0.2048 8.6016-4.5056 13.9264-13.312 16.1792v0.4096c7.3728 0.2048 11.4688 4.9152 12.0832 14.336 0.2048 1.024 0.4096 1.6384 0.4096 2.048 0.8192 7.7824 2.048 12.9024 3.8912 15.5648l-15.36 0.2048c-1.4336-5.7344-2.4576-11.4688-2.8672-17.8176-0.6144-5.7344-2.6624-8.3968-6.3488-8.3968l-15.1552 0.2048 0.4096 26.624z m-0.6144-37.2736l11.8784-0.2048c6.7584-0.2048 10.0352-3.2768 9.8304-9.4208 0-5.7344-3.4816-8.3968-10.24-7.9872l-11.8784 0.2048 0.4096 17.408zM581.8368 89.4976c0.6144-6.5536-2.4576-10.4448-9.4208-11.264-6.9632-0.4096-10.8544 1.8432-11.8784 6.9632-1.2288 4.9152 2.4576 8.3968 10.8544 10.8544 0.2048 0 0.8192 0.2048 1.6384 0.6144 14.9504 5.12 21.7088 12.0832 20.2752 21.0944-2.048 13.5168-12.288 19.456-30.9248 17.408-16.9984-2.2528-24.576-10.6496-22.3232-24.7808l14.336 1.8432c-1.024 7.5776 2.048 12.0832 9.4208 13.5168 8.6016 0.8192 13.312-1.2288 14.336-6.7584 0.6144-4.5056-3.072-7.9872-11.264-10.8544-1.2288-0.4096-2.048-0.8192-2.4576-1.024-14.1312-5.12-20.48-12.0832-19.2512-20.8896 2.4576-13.312 12.4928-19.2512 30.3104-17.8176 14.1312 2.6624 20.6848 10.24 19.6608 23.1424l-13.312-2.048zM616.0384 144.7936L602.112 141.312l16.1792-63.6928 13.9264 3.4816-16.1792 63.6928zM655.5648 87.2448l49.9712 19.8656-4.096 10.24-18.432-7.3728-20.2752 50.7904-13.312-5.3248 20.2752-50.7904-18.432-7.3728 4.3008-10.0352zM719.6672 165.6832l3.8912-49.7664 14.336 8.8064-4.096 32.9728 27.648-18.432 12.288 7.5776-42.1888 26.4192-11.0592 18.2272-11.8784-7.3728 11.0592-18.432zM795.4432 205.824c16.7936-14.9504 32.5632-15.1552 47.104-0.6144 13.7216 15.1552 12.4928 30.72-3.2768 46.6944-16.384 14.5408-31.5392 14.5408-46.08 0-14.1312-15.36-13.312-30.72 2.2528-46.08z m10.24 10.8544c-11.4688 10.8544-13.5168 20.48-5.7344 28.672 7.5776 7.9872 17.2032 6.5536 28.672-4.5056 11.6736-11.0592 13.7216-20.6848 6.144-28.672-7.5776-7.9872-17.408-6.5536-29.0816 4.5056zM820.8384 282.624l54.272-37.2736 24.1664 35.2256-9.0112 6.144-16.1792-23.7568-12.9024 8.8064 15.1552 22.1184-9.0112 6.144-15.1552-22.1184-23.1424 15.9744-8.192-11.264zM919.552 374.9888c7.3728-3.2768 9.6256-8.8064 6.9632-16.5888-3.2768-7.168-12.288-8.192-27.0336-3.2768-14.1312 5.9392-20.2752 12.6976-17.8176 20.2752 3.2768 7.7824 8.6016 10.24 16.1792 7.5776l5.3248 14.1312c-13.7216 4.5056-23.9616-1.6384-30.5152-18.432-5.9392-16.9984 1.2288-29.4912 21.504-37.6832 21.0944-7.168 35.0208-2.6624 41.984 13.5168 6.144 16.5888 2.2528 28.0576-11.264 34.2016l-5.3248-13.7216zM885.3504 412.4672l64.512-12.6976 2.6624 13.7216-25.3952 5.12 4.9152 24.576 25.3952-5.12 2.8672 14.1312-64.512 12.6976-2.6624-13.7216 28.2624-5.5296-4.9152-24.9856-28.2624 5.5296-2.8672-13.7216zM897.4336 494.7968l-1.024-14.336 65.7408-4.3008 1.024 14.336-65.7408 4.3008zM896.2048 549.0688l56.5248-21.9136-0.4096-0.4096-54.272-3.8912 1.024-13.312 65.536 4.5056-1.4336 21.0944-53.4528 21.504 0.4096 0.4096 51.4048 3.6864-0.8192 13.312-65.536-4.5056 1.024-20.48zM893.3376 578.56l57.344 40.1408-4.3008 16.384-69.632 5.7344 3.6864-13.9264 14.7456-1.2288 6.7584-25.3952-12.0832-8.3968 3.4816-13.312z m13.5168 46.2848l29.4912-1.4336v-0.4096l-24.576-16.5888-4.9152 18.432z" fill="#971F30" p-id="4529"></path><path d="M512.8192 147.0464c-202.752 0-367.0016 164.2496-367.0016 367.0016 0 202.752 164.2496 367.0016 367.0016 367.0016 202.752 0 367.0016-164.2496 367.0016-367.0016 0-202.5472-164.2496-367.0016-367.0016-367.0016z m0 712.4992c-190.6688 0-345.2928-154.624-345.2928-345.2928S322.1504 168.96 512.8192 168.96C703.6928 168.7552 858.112 323.3792 858.112 514.048c0 190.8736-154.4192 345.4976-345.2928 345.4976z" fill="#971F30" p-id="4530"></path><path d="M512.8192 33.1776C247.3984 33.1776 31.9488 248.6272 31.9488 514.048c0 265.6256 215.2448 480.8704 480.8704 480.8704 265.6256 0 480.8704-215.2448 480.8704-480.8704 0-265.4208-215.2448-480.8704-480.8704-480.8704z m0 948.6336C254.5664 981.8112 45.2608 772.5056 45.2608 514.048c0-258.2528 209.3056-467.7632 467.7632-467.7632S980.5824 255.7952 980.5824 514.048c0 258.4576-209.5104 467.7632-467.7632 467.7632z" fill="#971F30" p-id="4531"></path><path d="M512.8192 11.264C235.1104 11.264 10.0352 236.3392 10.0352 514.048s225.0752 502.9888 502.9888 502.9888C790.7328 1017.0368 1015.808 791.9616 1015.808 514.048 1015.808 236.3392 790.7328 11.264 512.8192 11.264z m0 994.5088C241.2544 1005.7728 21.0944 785.6128 21.0944 514.048S241.2544 22.3232 512.8192 22.3232 1004.544 242.4832 1004.544 514.048 784.384 1005.7728 512.8192 1005.7728z" fill="#971F30" p-id="4532"></path></svg>