<?xml version="1.0" standalone="no"?><!DOCTYPE svg PUBLIC "-//W3C//DTD SVG 1.1//EN" "http://www.w3.org/Graphics/SVG/1.1/DTD/svg11.dtd"><svg t="1715931438524" class="icon" viewBox="0 0 1024 1024" version="1.1" xmlns="http://www.w3.org/2000/svg" p-id="2485" xmlns:xlink="http://www.w3.org/1999/xlink" width="200" height="200"><path d="M302.7968 288.3584S126.464 394.752 146.3296 628.48c21.6064 254.6688 240.4864 333.824 381.0304 329.6768 140.544-4.1984 347.4944-112.896 350.464-379.8528 2.9184-266.9568-226.9184-342.9888-366.6944-345.1904S302.7968 288.3584 302.7968 288.3584z" fill="#FFAE71" p-id="2486"></path><path d="M735.9488 881.7152C316.928 938.2912 235.0592 520.2944 219.1872 368.128c-42.3424 55.7568-82.944 141.568-72.8576 260.352 21.6064 254.6688 240.4864 333.824 381.0816 329.6768 64.2048-1.9456 142.336-25.7024 208.5376-76.4416z" fill="#F29955" p-id="2487"></path><path d="M516.7104 973.6704c-81.3568 0-167.68-26.0096-233.1136-70.6048-89.856-61.2352-142.592-155.7504-152.576-273.3056C120.3712 504.2688 165.2736 414.6688 204.8 361.6256c39.9872-53.6576 82.0224-81.3056 89.088-85.76 9.3696-7.424 80.6912-60.2112 217.4464-58.112 126.1056 1.9968 295.3216 60.0576 357.2736 216.9856a15.35488 15.35488 0 1 1-28.5696 11.264c-56.3712-142.7968-212.5312-195.6352-329.1648-197.5296-131.584-1.9968-197.5808 51.2-198.2464 51.712-0.5632 0.4608-1.2288 0.9728-1.8944 1.3312-6.8608 4.1472-167.8336 104.7552-149.1456 325.632 21.8624 257.5872 248.6272 319.1296 365.312 315.5968 37.0688-1.0752 164.9152-12.4416 254.72-112.2304 62.6176-69.5808 89.856-164.7104 80.896-282.8288a15.36512 15.36512 0 0 1 14.1824-16.4864 15.37024 15.37024 0 0 1 16.4864 14.1824c9.5744 126.8224-20.2752 229.632-88.7296 305.7152-97.9456 108.8512-236.4928 121.1904-276.6336 122.368-3.6864 0.1536-7.424 0.2048-11.1104 0.2048z" fill="#000F04" p-id="2488"></path><path d="M89.856 125.184s45.1072 22.528 82.3808 0S396.7488 31.0272 498.688 208.4864c-45.4656 64.6144-148.0192 133.3248-300.032 76.4928-48.9984-20.5824-111.7184-84.3264-108.8-159.7952z" fill="#BFE5BD" p-id="2489"></path><path d="M198.7072 284.9792c141.9776 53.0944 240.7936-3.328 290.2528-63.6928 0.5632-5.5296 0.6144-11.1616 0.0512-16.9472C213.6576 284.16 89.856 125.184 89.856 125.184c-2.9184 75.4688 59.8016 139.2128 108.8512 159.7952z" fill="#A2DD9E" p-id="2490"></path><path d="M307.8144 321.4848c-34.9696 0-73.2672-6.656-114.5344-22.1184-0.2048-0.0512-0.3584-0.1536-0.5632-0.2048-51.0976-21.4528-121.5488-89.8048-118.2208-174.592a15.2064 15.2064 0 0 1 7.5264-12.5952c4.4544-2.6624 9.984-2.8672 14.6432-0.5632 0.768 0.3584 38.3488 18.3296 67.584 0.6144 25.856-15.6672 112.6912-51.2512 202.4448-28.0576 60.8768 15.7184 109.7728 55.04 145.3568 116.8896 2.9696 5.1712 2.6624 11.6224-0.768 16.4864-39.424 56.0128-109.568 104.1408-203.4688 104.1408z m-103.424-50.7904c129.9968 48.4864 226.4064 0.5632 275.9168-63.0784-30.72-49.5104-71.4752-81.0496-121.2416-93.9008-79.0528-20.4288-157.5936 11.7248-178.8416 24.6272-26.0096 15.7184-54.4768 13.4656-73.8304 8.7552 8.4992 59.5456 60.672 107.776 97.9968 123.5968z" fill="#000F04" p-id="2491"></path><path d="M538.9312 81.8176l58.3168 20.1216s-93.6448 86.784-75.9808 205.4144c-11.776 7.8336-43.6224 0-43.6224 0s2.4576-157.9008 61.2864-225.536z" fill="#CF9782" p-id="2492"></path><path d="M504.0128 326.144c-12.5952 0-24.8832-2.6624-30.0544-3.9424a15.31904 15.31904 0 0 1-11.6736-15.1552c0.1024-6.656 3.2256-164.2496 65.024-235.3152 4.096-4.7104 10.6496-6.5024 16.5888-4.4544l58.3168 20.1216c5.12 1.7408 8.9088 6.0928 10.0352 11.3664 1.1264 5.2736-0.6144 10.752-4.608 14.4384-0.8704 0.8192-87.4496 82.944-71.2192 191.8976a15.4624 15.4624 0 0 1-6.656 15.0528c-6.8608 4.5056-16.384 5.9904-25.7536 5.9904z m-10.496-31.5392c3.9424 0.512 7.68 0.768 10.9056 0.8192-7.3216-87.2448 39.2704-155.648 65.4848-186.6752l-25.7536-8.8576c-39.7312 54.6816-48.6912 158.4128-50.6368 194.7136z" fill="#000F04" p-id="2493"></path><path d="M580.7616 340.992c-5.2736 0-10.3936-2.7136-13.2608-7.5776-9.3696-16.0256-30.9248-18.688-64.0512-7.936-3.6864 1.1776-7.68 0.9216-11.1616-0.6656-42.24-19.5584-68.9152 10.5984-69.1712 10.9056a15.3856 15.3856 0 0 1-21.6576 1.5872c-6.4-5.5296-7.168-15.2576-1.5872-21.6576 13.824-16.0768 51.9168-40.192 99.7888-21.1456 56.7808-16.5888 82.688 3.328 94.4128 23.3984a15.3088 15.3088 0 0 1-5.4784 20.992c-2.56 1.3824-5.2224 2.0992-7.8336 2.0992zM411.4432 852.3264c-2.1504 0-4.352-0.4608-6.4512-1.4336-102.656-47.6672-160.1536-126.3104-170.9056-233.7792a15.31392 15.31392 0 0 1 13.7728-16.7936 15.38048 15.38048 0 0 1 16.7936 13.7728c9.5744 95.8976 61.184 166.2464 153.2928 208.9984 7.68 3.584 11.0592 12.6976 7.4752 20.3776a15.43168 15.43168 0 0 1-13.9776 8.8576zM246.4768 567.9616h-0.8704a15.3856 15.3856 0 0 1-14.4896-16.1792c0.4096-7.4752 0.9728-11.776 1.024-12.2368a15.45216 15.45216 0 0 1 17.2544-13.2096c8.3968 1.1264 14.2848 8.8064 13.2096 17.2544 0 0.0512-0.4608 3.6352-0.8192 9.9328a15.32416 15.32416 0 0 1-15.3088 14.4384z" fill="#000F04" p-id="2494"></path></svg>